<?xml version="1.0" encoding="UTF-8" standalone="no"?>
<!DOCTYPE svg PUBLIC "-//W3C//DTD SVG 1.1//EN"
 "http://www.w3.org/Graphics/SVG/1.1/DTD/svg11.dtd">
<!-- Generated by graphviz version 8.0.3 (20230416.2022)
 -->
<!-- Pages: 1 -->
<svg width="1445pt" height="1598pt"
 viewBox="0.00 0.00 1445.00 1597.50" xmlns="http://www.w3.org/2000/svg" xmlns:xlink="http://www.w3.org/1999/xlink">
<g id="graph0" class="graph" transform="scale(1 1) rotate(0) translate(4 1593.5)">
<polygon fill="#ffffff" stroke="none" points="-4,4 -4,-1593.5 1441,-1593.5 1441,4 -4,4"/>
<!-- B1&#45;J3 -->
<g id="node1" class="node">
<title>B1&#45;J3</title>
<polygon fill="#ffffff" stroke="black" points="170,-104 30,-104 30,-12 170,-12 170,-104"/>
<polygon fill="none" stroke="black" points="30,-81 30,-104 170,-104 170,-81 30,-81"/>
<text text-anchor="start" x="80.5" y="-88.8" font-family="arial" font-size="14.00">B1&#45;J3</text>
<polygon fill="none" stroke="black" points="30,-58 30,-81 78,-81 78,-58 30,-58"/>
<text text-anchor="start" x="34" y="-65.8" font-family="arial" font-size="14.00">XT&#45;60</text>
<polygon fill="none" stroke="black" points="78,-58 78,-81 130,-81 130,-58 78,-58"/>
<text text-anchor="start" x="82" y="-65.8" font-family="arial" font-size="14.00">female</text>
<polygon fill="none" stroke="black" points="130,-58 130,-81 170,-81 170,-58 130,-58"/>
<text text-anchor="start" x="134" y="-65.8" font-family="arial" font-size="14.00">2&#45;pin</text>
<polygon fill="none" stroke="black" points="30,-35 30,-58 170,-58 170,-35 30,-35"/>
<text text-anchor="start" x="95.5" y="-42.8" font-family="arial" font-size="14.00">1</text>
<polygon fill="none" stroke="black" points="30,-12 30,-35 170,-35 170,-12 30,-12"/>
<text text-anchor="start" x="95.5" y="-19.8" font-family="arial" font-size="14.00">2</text>
</g>
<!-- W&#45;PD&#45;001&#45;B -->
<g id="node11" class="node">
<title>W&#45;PD&#45;001&#45;B</title>
<polygon fill="#ffffff" stroke="black" points="535,-134 344,-134 344,0 535,0 535,-134"/>
<polygon fill="none" stroke="black" points="344,-111 344,-134 535,-134 535,-111 344,-111"/>
<text text-anchor="start" x="398" y="-118.8" font-family="arial" font-size="14.00">W&#45;PD&#45;001&#45;B</text>
<polygon fill="none" stroke="black" points="344,-88 344,-111 535,-111 535,-88 344,-88"/>
<text text-anchor="start" x="431.5" y="-95.8" font-family="arial" font-size="14.00">2x</text>
<text text-anchor="start" x="369.5" y="-74.8" font-family="arial" font-size="14.00"> </text>
<text text-anchor="start" x="346" y="-55.8" font-family="arial" font-size="14.00">B1&#45;J3:1</text>
<text text-anchor="start" x="401" y="-55.8" font-family="arial" font-size="14.00"> &#160;&#160;&#160;&#160;1:RD &#160;&#160;&#160;</text>
<text text-anchor="start" x="477.5" y="-55.8" font-family="arial" font-size="14.00">F1&#45;J2:1</text>
<polygon fill="#000000" stroke="none" points="344,-48 344,-50 535,-50 535,-48 344,-48"/>
<polygon fill="#ff0000" stroke="none" points="344,-46 344,-48 535,-48 535,-46 344,-46"/>
<polygon fill="#000000" stroke="none" points="344,-44 344,-46 535,-46 535,-44 344,-44"/>
<text text-anchor="start" x="346" y="-30.8" font-family="arial" font-size="14.00">B1&#45;J3:2</text>
<text text-anchor="start" x="401.5" y="-30.8" font-family="arial" font-size="14.00"> &#160;&#160;&#160;&#160;2:BU &#160;&#160;&#160;</text>
<text text-anchor="start" x="472" y="-30.8" font-family="arial" font-size="14.00">VR1&#45;J1:2</text>
<polygon fill="#000000" stroke="none" points="344,-23 344,-25 535,-25 535,-23 344,-23"/>
<polygon fill="#0066ff" stroke="none" points="344,-21 344,-23 535,-23 535,-21 344,-21"/>
<polygon fill="#000000" stroke="none" points="344,-19 344,-21 535,-21 535,-19 344,-19"/>
<text text-anchor="start" x="369.5" y="-5.8" font-family="arial" font-size="14.00"> </text>
</g>
<!-- B1&#45;J3&#45;&#45;W&#45;PD&#45;001&#45;B -->
<g id="edge1" class="edge">
<title>B1&#45;J3:e&#45;&#45;W&#45;PD&#45;001&#45;B:w</title>
<path fill="none" stroke="#000000" stroke-width="2" d="M171,-44C247.99,-44 267.21,-45 344,-45"/>
<path fill="none" stroke="#ff0000" stroke-width="2" d="M171,-46C247.89,-46 267.11,-47 344,-47"/>
<path fill="none" stroke="#000000" stroke-width="2" d="M171,-48C247.79,-48 267.01,-49 344,-49"/>
</g>
<!-- B1&#45;J3&#45;&#45;W&#45;PD&#45;001&#45;B -->
<g id="edge2" class="edge">
<title>B1&#45;J3:e&#45;&#45;W&#45;PD&#45;001&#45;B:w</title>
<path fill="none" stroke="#000000" stroke-width="2" d="M171,-21C247.79,-21 267.01,-20 344,-20"/>
<path fill="none" stroke="#0066ff" stroke-width="2" d="M171,-23C247.89,-23 267.11,-22 344,-22"/>
<path fill="none" stroke="#000000" stroke-width="2" d="M171,-25C247.99,-25 267.21,-24 344,-24"/>
</g>
<!-- F1&#45;J1 -->
<g id="node2" class="node">
<title>F1&#45;J1</title>
<polygon fill="#ffffff" stroke="black" points="170,-220 30,-220 30,-128 170,-128 170,-220"/>
<polygon fill="none" stroke="black" points="30,-197 30,-220 170,-220 170,-197 30,-197"/>
<text text-anchor="start" x="81" y="-204.8" font-family="arial" font-size="14.00">F1&#45;J1</text>
<polygon fill="none" stroke="black" points="30,-174 30,-197 78,-197 78,-174 30,-174"/>
<text text-anchor="start" x="34" y="-181.8" font-family="arial" font-size="14.00">XT&#45;60</text>
<polygon fill="none" stroke="black" points="78,-174 78,-197 130,-197 130,-174 78,-174"/>
<text text-anchor="start" x="82" y="-181.8" font-family="arial" font-size="14.00">female</text>
<polygon fill="none" stroke="black" points="130,-174 130,-197 170,-197 170,-174 130,-174"/>
<text text-anchor="start" x="134" y="-181.8" font-family="arial" font-size="14.00">2&#45;pin</text>
<polygon fill="none" stroke="black" points="30,-151 30,-174 170,-174 170,-151 30,-151"/>
<text text-anchor="start" x="95.5" y="-158.8" font-family="arial" font-size="14.00">1</text>
<polygon fill="none" stroke="black" points="30,-128 30,-151 170,-151 170,-128 30,-128"/>
<text text-anchor="start" x="95.5" y="-135.8" font-family="arial" font-size="14.00">2</text>
</g>
<!-- F1&#45;J2 -->
<g id="node3" class="node">
<title>F1&#45;J2</title>
<polygon fill="#ffffff" stroke="black" points="819,-128 679,-128 679,-36 819,-36 819,-128"/>
<polygon fill="none" stroke="black" points="679,-105 679,-128 819,-128 819,-105 679,-105"/>
<text text-anchor="start" x="730" y="-112.8" font-family="arial" font-size="14.00">F1&#45;J2</text>
<polygon fill="none" stroke="black" points="679,-82 679,-105 727,-105 727,-82 679,-82"/>
<text text-anchor="start" x="683" y="-89.8" font-family="arial" font-size="14.00">XT&#45;60</text>
<polygon fill="none" stroke="black" points="727,-82 727,-105 779,-105 779,-82 727,-82"/>
<text text-anchor="start" x="731" y="-89.8" font-family="arial" font-size="14.00">female</text>
<polygon fill="none" stroke="black" points="779,-82 779,-105 819,-105 819,-82 779,-82"/>
<text text-anchor="start" x="783" y="-89.8" font-family="arial" font-size="14.00">2&#45;pin</text>
<polygon fill="none" stroke="black" points="679,-59 679,-82 749,-82 749,-59 679,-59"/>
<text text-anchor="start" x="709.5" y="-66.8" font-family="arial" font-size="14.00">1</text>
<polygon fill="none" stroke="black" points="749,-59 749,-82 819,-82 819,-59 749,-59"/>
<text text-anchor="start" x="779.5" y="-66.8" font-family="arial" font-size="14.00">1</text>
<polygon fill="none" stroke="black" points="679,-36 679,-59 749,-59 749,-36 679,-36"/>
<text text-anchor="start" x="709.5" y="-43.8" font-family="arial" font-size="14.00">2</text>
<polygon fill="none" stroke="black" points="749,-36 749,-59 819,-59 819,-36 749,-36"/>
<text text-anchor="start" x="779.5" y="-43.8" font-family="arial" font-size="14.00">2</text>
</g>
<!-- W&#45;PD&#45;002&#45;B -->
<g id="node12" class="node">
<title>W&#45;PD&#45;002&#45;B</title>
<polygon fill="#ffffff" stroke="black" points="1153,-151.5 963,-151.5 963,-42.5 1153,-42.5 1153,-151.5"/>
<polygon fill="none" stroke="black" points="963,-128.5 963,-151.5 1153,-151.5 1153,-128.5 963,-128.5"/>
<text text-anchor="start" x="1016.5" y="-136.3" font-family="arial" font-size="14.00">W&#45;PD&#45;002&#45;B</text>
<polygon fill="none" stroke="black" points="963,-105.5 963,-128.5 1153,-128.5 1153,-105.5 963,-105.5"/>
<text text-anchor="start" x="1050" y="-113.3" font-family="arial" font-size="14.00">1x</text>
<text text-anchor="start" x="988" y="-92.3" font-family="arial" font-size="14.00"> </text>
<text text-anchor="start" x="965" y="-73.3" font-family="arial" font-size="14.00">F1&#45;J2:1</text>
<text text-anchor="start" x="1019" y="-73.3" font-family="arial" font-size="14.00"> &#160;&#160;&#160;&#160;1:RD &#160;&#160;&#160;</text>
<text text-anchor="start" x="1090" y="-73.3" font-family="arial" font-size="14.00">VR1&#45;J1:1</text>
<polygon fill="#000000" stroke="none" points="963,-65.5 963,-67.5 1153,-67.5 1153,-65.5 963,-65.5"/>
<polygon fill="#ff0000" stroke="none" points="963,-63.5 963,-65.5 1153,-65.5 1153,-63.5 963,-63.5"/>
<polygon fill="#000000" stroke="none" points="963,-61.5 963,-63.5 1153,-63.5 1153,-61.5 963,-61.5"/>
<text text-anchor="start" x="988" y="-48.3" font-family="arial" font-size="14.00"> </text>
</g>
<!-- F1&#45;J2&#45;&#45;W&#45;PD&#45;002&#45;B -->
<g id="edge5" class="edge">
<title>F1&#45;J2:e&#45;&#45;W&#45;PD&#45;002&#45;B:w</title>
<path fill="none" stroke="#000000" stroke-width="2" d="M819,-68C882.35,-68.13 898.24,-62.13 963,-62"/>
<path fill="none" stroke="#ff0000" stroke-width="2" d="M819,-70C883.06,-70 898.94,-64 963,-64"/>
<path fill="none" stroke="#000000" stroke-width="2" d="M819,-72C883.76,-71.87 899.65,-65.87 963,-66"/>
</g>
<!-- VR1&#45;J1 -->
<g id="node4" class="node">
<title>VR1&#45;J1</title>
<polygon fill="#ffffff" stroke="black" points="1437,-98 1297,-98 1297,-6 1437,-6 1437,-98"/>
<polygon fill="none" stroke="black" points="1297,-75 1297,-98 1437,-98 1437,-75 1297,-75"/>
<text text-anchor="start" x="1342.5" y="-82.8" font-family="arial" font-size="14.00">VR1&#45;J1</text>
<polygon fill="none" stroke="black" points="1297,-52 1297,-75 1345,-75 1345,-52 1297,-52"/>
<text text-anchor="start" x="1301" y="-59.8" font-family="arial" font-size="14.00">XT&#45;60</text>
<polygon fill="none" stroke="black" points="1345,-52 1345,-75 1397,-75 1397,-52 1345,-52"/>
<text text-anchor="start" x="1349" y="-59.8" font-family="arial" font-size="14.00">female</text>
<polygon fill="none" stroke="black" points="1397,-52 1397,-75 1437,-75 1437,-52 1397,-52"/>
<text text-anchor="start" x="1401" y="-59.8" font-family="arial" font-size="14.00">2&#45;pin</text>
<polygon fill="none" stroke="black" points="1297,-29 1297,-52 1437,-52 1437,-29 1297,-29"/>
<text text-anchor="start" x="1362.5" y="-36.8" font-family="arial" font-size="14.00">1</text>
<polygon fill="none" stroke="black" points="1297,-6 1297,-29 1437,-29 1437,-6 1297,-6"/>
<text text-anchor="start" x="1362.5" y="-13.8" font-family="arial" font-size="14.00">2</text>
</g>
<!-- VR1&#45;J2 -->
<g id="node5" class="node">
<title>VR1&#45;J2</title>
<polygon fill="#ffffff" stroke="black" points="170,-336 30,-336 30,-244 170,-244 170,-336"/>
<polygon fill="none" stroke="black" points="30,-313 30,-336 170,-336 170,-313 30,-313"/>
<text text-anchor="start" x="75.5" y="-320.8" font-family="arial" font-size="14.00">VR1&#45;J2</text>
<polygon fill="none" stroke="black" points="30,-290 30,-313 78,-313 78,-290 30,-290"/>
<text text-anchor="start" x="34" y="-297.8" font-family="arial" font-size="14.00">XT&#45;60</text>
<polygon fill="none" stroke="black" points="78,-290 78,-313 130,-313 130,-290 78,-290"/>
<text text-anchor="start" x="82" y="-297.8" font-family="arial" font-size="14.00">female</text>
<polygon fill="none" stroke="black" points="130,-290 130,-313 170,-313 170,-290 130,-290"/>
<text text-anchor="start" x="134" y="-297.8" font-family="arial" font-size="14.00">2&#45;pin</text>
<polygon fill="none" stroke="black" points="30,-267 30,-290 170,-290 170,-267 30,-267"/>
<text text-anchor="start" x="95.5" y="-274.8" font-family="arial" font-size="14.00">1</text>
<polygon fill="none" stroke="black" points="30,-244 30,-267 170,-267 170,-244 30,-244"/>
<text text-anchor="start" x="95.5" y="-251.8" font-family="arial" font-size="14.00">2</text>
</g>
<!-- VR2&#45;J1 -->
<g id="node6" class="node">
<title>VR2&#45;J1</title>
<polygon fill="#ffffff" stroke="black" points="170,-452 30,-452 30,-360 170,-360 170,-452"/>
<polygon fill="none" stroke="black" points="30,-429 30,-452 170,-452 170,-429 30,-429"/>
<text text-anchor="start" x="75.5" y="-436.8" font-family="arial" font-size="14.00">VR2&#45;J1</text>
<polygon fill="none" stroke="black" points="30,-406 30,-429 78,-429 78,-406 30,-406"/>
<text text-anchor="start" x="34" y="-413.8" font-family="arial" font-size="14.00">XT&#45;60</text>
<polygon fill="none" stroke="black" points="78,-406 78,-429 130,-429 130,-406 78,-406"/>
<text text-anchor="start" x="82" y="-413.8" font-family="arial" font-size="14.00">female</text>
<polygon fill="none" stroke="black" points="130,-406 130,-429 170,-429 170,-406 130,-406"/>
<text text-anchor="start" x="134" y="-413.8" font-family="arial" font-size="14.00">2&#45;pin</text>
<polygon fill="none" stroke="black" points="30,-383 30,-406 170,-406 170,-383 30,-383"/>
<text text-anchor="start" x="95.5" y="-390.8" font-family="arial" font-size="14.00">1</text>
<polygon fill="none" stroke="black" points="30,-360 30,-383 170,-383 170,-360 30,-360"/>
<text text-anchor="start" x="95.5" y="-367.8" font-family="arial" font-size="14.00">2</text>
</g>
<!-- VR2&#45;J2 -->
<g id="node7" class="node">
<title>VR2&#45;J2</title>
<polygon fill="#ffffff" stroke="black" points="170,-568 30,-568 30,-476 170,-476 170,-568"/>
<polygon fill="none" stroke="black" points="30,-545 30,-568 170,-568 170,-545 30,-545"/>
<text text-anchor="start" x="75.5" y="-552.8" font-family="arial" font-size="14.00">VR2&#45;J2</text>
<polygon fill="none" stroke="black" points="30,-522 30,-545 78,-545 78,-522 30,-522"/>
<text text-anchor="start" x="34" y="-529.8" font-family="arial" font-size="14.00">XT&#45;60</text>
<polygon fill="none" stroke="black" points="78,-522 78,-545 130,-545 130,-522 78,-522"/>
<text text-anchor="start" x="82" y="-529.8" font-family="arial" font-size="14.00">female</text>
<polygon fill="none" stroke="black" points="130,-522 130,-545 170,-545 170,-522 130,-522"/>
<text text-anchor="start" x="134" y="-529.8" font-family="arial" font-size="14.00">2&#45;pin</text>
<polygon fill="none" stroke="black" points="30,-499 30,-522 170,-522 170,-499 30,-499"/>
<text text-anchor="start" x="95.5" y="-506.8" font-family="arial" font-size="14.00">1</text>
<polygon fill="none" stroke="black" points="30,-476 30,-499 170,-499 170,-476 30,-476"/>
<text text-anchor="start" x="95.5" y="-483.8" font-family="arial" font-size="14.00">2</text>
</g>
<!-- T1&#45;J1 -->
<g id="node8" class="node">
<title>T1&#45;J1</title>
<polygon fill="#ffffff" stroke="black" points="200,-661.5 0,-661.5 0,-592.5 200,-592.5 200,-661.5"/>
<polygon fill="none" stroke="black" points="0,-638.5 0,-661.5 200,-661.5 200,-638.5 0,-638.5"/>
<text text-anchor="start" x="81" y="-646.3" font-family="arial" font-size="14.00">T1&#45;J1</text>
<polygon fill="none" stroke="black" points="0,-615.5 0,-638.5 108,-638.5 108,-615.5 0,-615.5"/>
<text text-anchor="start" x="4" y="-623.3" font-family="arial" font-size="14.00">Screw&#45;Terminal</text>
<polygon fill="none" stroke="black" points="108,-615.5 108,-638.5 160,-638.5 160,-615.5 108,-615.5"/>
<text text-anchor="start" x="112" y="-623.3" font-family="arial" font-size="14.00">female</text>
<polygon fill="none" stroke="black" points="160,-615.5 160,-638.5 200,-638.5 200,-615.5 160,-615.5"/>
<text text-anchor="start" x="164" y="-623.3" font-family="arial" font-size="14.00">1&#45;pin</text>
<polygon fill="none" stroke="black" points="0,-592.5 0,-615.5 200,-615.5 200,-592.5 0,-592.5"/>
<text text-anchor="start" x="95.5" y="-600.3" font-family="arial" font-size="14.00">1</text>
</g>
<!-- T2&#45;J1 -->
<g id="node9" class="node">
<title>T2&#45;J1</title>
<polygon fill="#ffffff" stroke="black" points="200,-754.5 0,-754.5 0,-685.5 200,-685.5 200,-754.5"/>
<polygon fill="none" stroke="black" points="0,-731.5 0,-754.5 200,-754.5 200,-731.5 0,-731.5"/>
<text text-anchor="start" x="81" y="-739.3" font-family="arial" font-size="14.00">T2&#45;J1</text>
<polygon fill="none" stroke="black" points="0,-708.5 0,-731.5 108,-731.5 108,-708.5 0,-708.5"/>
<text text-anchor="start" x="4" y="-716.3" font-family="arial" font-size="14.00">Screw&#45;Terminal</text>
<polygon fill="none" stroke="black" points="108,-708.5 108,-731.5 160,-731.5 160,-708.5 108,-708.5"/>
<text text-anchor="start" x="112" y="-716.3" font-family="arial" font-size="14.00">female</text>
<polygon fill="none" stroke="black" points="160,-708.5 160,-731.5 200,-731.5 200,-708.5 160,-708.5"/>
<text text-anchor="start" x="164" y="-716.3" font-family="arial" font-size="14.00">1&#45;pin</text>
<polygon fill="none" stroke="black" points="0,-685.5 0,-708.5 200,-708.5 200,-685.5 0,-685.5"/>
<text text-anchor="start" x="95.5" y="-693.3" font-family="arial" font-size="14.00">1</text>
</g>
<!-- T3&#45;J1 -->
<g id="node10" class="node">
<title>T3&#45;J1</title>
<polygon fill="#ffffff" stroke="black" points="200,-847.5 0,-847.5 0,-778.5 200,-778.5 200,-847.5"/>
<polygon fill="none" stroke="black" points="0,-824.5 0,-847.5 200,-847.5 200,-824.5 0,-824.5"/>
<text text-anchor="start" x="81" y="-832.3" font-family="arial" font-size="14.00">T3&#45;J1</text>
<polygon fill="none" stroke="black" points="0,-801.5 0,-824.5 108,-824.5 108,-801.5 0,-801.5"/>
<text text-anchor="start" x="4" y="-809.3" font-family="arial" font-size="14.00">Screw&#45;Terminal</text>
<polygon fill="none" stroke="black" points="108,-801.5 108,-824.5 160,-824.5 160,-801.5 108,-801.5"/>
<text text-anchor="start" x="112" y="-809.3" font-family="arial" font-size="14.00">female</text>
<polygon fill="none" stroke="black" points="160,-801.5 160,-824.5 200,-824.5 200,-801.5 160,-801.5"/>
<text text-anchor="start" x="164" y="-809.3" font-family="arial" font-size="14.00">1&#45;pin</text>
<polygon fill="none" stroke="black" points="0,-778.5 0,-801.5 200,-801.5 200,-778.5 0,-778.5"/>
<text text-anchor="start" x="95.5" y="-786.3" font-family="arial" font-size="14.00">1</text>
</g>
<!-- W&#45;PD&#45;001&#45;B&#45;&#45;F1&#45;J2 -->
<g id="edge3" class="edge">
<title>W&#45;PD&#45;001&#45;B:e&#45;&#45;F1&#45;J2:w</title>
<path fill="none" stroke="#000000" stroke-width="2" d="M535,-45C601.51,-45.94 615.88,-68.94 679,-68"/>
<path fill="none" stroke="#ff0000" stroke-width="2" d="M535,-47C599.81,-47 614.19,-70 679,-70"/>
<path fill="none" stroke="#000000" stroke-width="2" d="M535,-49C598.12,-48.06 612.49,-71.06 679,-72"/>
</g>
<!-- W&#45;PD&#45;001&#45;B&#45;&#45;VR1&#45;J1 -->
<g id="edge4" class="edge">
<title>W&#45;PD&#45;001&#45;B:e&#45;&#45;VR1&#45;J1:w</title>
<path fill="none" stroke="#000000" stroke-width="2" d="M535,-20C873.56,-20 958.21,-15 1297,-15"/>
<path fill="none" stroke="#0066ff" stroke-width="2" d="M535,-22C873.67,-22 958.33,-17 1297,-17"/>
<path fill="none" stroke="#000000" stroke-width="2" d="M535,-24C873.79,-24 958.44,-19 1297,-19"/>
</g>
<!-- W&#45;PD&#45;002&#45;B&#45;&#45;VR1&#45;J1 -->
<g id="edge6" class="edge">
<title>W&#45;PD&#45;002&#45;B:e&#45;&#45;VR1&#45;J1:w</title>
<path fill="none" stroke="#000000" stroke-width="2" d="M1153,-62C1216.16,-62.98 1230.4,-38.98 1297,-38"/>
<path fill="none" stroke="#ff0000" stroke-width="2" d="M1153,-64C1217.88,-64 1232.12,-40 1297,-40"/>
<path fill="none" stroke="#000000" stroke-width="2" d="M1153,-66C1219.6,-65.02 1233.84,-41.02 1297,-42"/>
</g>
<!-- W&#45;PD&#45;003A -->
<g id="node13" class="node">
<title>W&#45;PD&#45;003A</title>
<polygon fill="#ffffff" stroke="black" points="143.5,-1006 56.5,-1006 56.5,-872 143.5,-872 143.5,-1006"/>
<polygon fill="none" stroke="black" points="56.5,-983 56.5,-1006 143.5,-1006 143.5,-983 56.5,-983"/>
<text text-anchor="start" x="60.5" y="-990.8" font-family="arial" font-size="14.00">W&#45;PD&#45;003A</text>
<polygon fill="none" stroke="black" points="56.5,-960 56.5,-983 143.5,-983 143.5,-960 56.5,-960"/>
<text text-anchor="start" x="92" y="-967.8" font-family="arial" font-size="14.00">2x</text>
<text text-anchor="start" x="59.17" y="-946.8" font-family="arial" font-size="14.00"> </text>
<text text-anchor="start" x="68.5" y="-927.8" font-family="arial" font-size="14.00"> &#160;&#160;&#160;&#160;1:RD &#160;&#160;&#160;</text>
<polygon fill="#000000" stroke="none" points="56.5,-920 56.5,-922 143.5,-922 143.5,-920 56.5,-920"/>
<polygon fill="#ff0000" stroke="none" points="56.5,-918 56.5,-920 143.5,-920 143.5,-918 56.5,-918"/>
<polygon fill="#000000" stroke="none" points="56.5,-916 56.5,-918 143.5,-918 143.5,-916 56.5,-916"/>
<text text-anchor="start" x="69" y="-902.8" font-family="arial" font-size="14.00"> &#160;&#160;&#160;&#160;2:BU &#160;&#160;&#160;</text>
<polygon fill="#000000" stroke="none" points="56.5,-895 56.5,-897 143.5,-897 143.5,-895 56.5,-895"/>
<polygon fill="#0066ff" stroke="none" points="56.5,-893 56.5,-895 143.5,-895 143.5,-893 56.5,-893"/>
<polygon fill="#000000" stroke="none" points="56.5,-891 56.5,-893 143.5,-893 143.5,-891 56.5,-891"/>
<text text-anchor="start" x="59.17" y="-877.8" font-family="arial" font-size="14.00"> </text>
</g>
<!-- W&#45;PD&#45;003B -->
<g id="node14" class="node">
<title>W&#45;PD&#45;003B</title>
<polygon fill="#ffffff" stroke="black" points="143.5,-1139.5 56.5,-1139.5 56.5,-1030.5 143.5,-1030.5 143.5,-1139.5"/>
<polygon fill="none" stroke="black" points="56.5,-1116.5 56.5,-1139.5 143.5,-1139.5 143.5,-1116.5 56.5,-1116.5"/>
<text text-anchor="start" x="60.5" y="-1124.3" font-family="arial" font-size="14.00">W&#45;PD&#45;003B</text>
<polygon fill="none" stroke="black" points="56.5,-1093.5 56.5,-1116.5 143.5,-1116.5 143.5,-1093.5 56.5,-1093.5"/>
<text text-anchor="start" x="92" y="-1101.3" font-family="arial" font-size="14.00">1x</text>
<text text-anchor="start" x="59.17" y="-1080.3" font-family="arial" font-size="14.00"> </text>
<text text-anchor="start" x="68.5" y="-1061.3" font-family="arial" font-size="14.00"> &#160;&#160;&#160;&#160;1:RD &#160;&#160;&#160;</text>
<polygon fill="#000000" stroke="none" points="56.5,-1053.5 56.5,-1055.5 143.5,-1055.5 143.5,-1053.5 56.5,-1053.5"/>
<polygon fill="#ff0000" stroke="none" points="56.5,-1051.5 56.5,-1053.5 143.5,-1053.5 143.5,-1051.5 56.5,-1051.5"/>
<polygon fill="#000000" stroke="none" points="56.5,-1049.5 56.5,-1051.5 143.5,-1051.5 143.5,-1049.5 56.5,-1049.5"/>
<text text-anchor="start" x="59.17" y="-1036.3" font-family="arial" font-size="14.00"> </text>
</g>
<!-- W&#45;PD&#45;003C -->
<g id="node15" class="node">
<title>W&#45;PD&#45;003C</title>
<polygon fill="#ffffff" stroke="black" points="143.5,-1298 56.5,-1298 56.5,-1164 143.5,-1164 143.5,-1298"/>
<polygon fill="none" stroke="black" points="56.5,-1275 56.5,-1298 143.5,-1298 143.5,-1275 56.5,-1275"/>
<text text-anchor="start" x="60.5" y="-1282.8" font-family="arial" font-size="14.00">W&#45;PD&#45;003C</text>
<polygon fill="none" stroke="black" points="56.5,-1252 56.5,-1275 143.5,-1275 143.5,-1252 56.5,-1252"/>
<text text-anchor="start" x="92" y="-1259.8" font-family="arial" font-size="14.00">2x</text>
<text text-anchor="start" x="59.17" y="-1238.8" font-family="arial" font-size="14.00"> </text>
<text text-anchor="start" x="68.5" y="-1219.8" font-family="arial" font-size="14.00"> &#160;&#160;&#160;&#160;1:RD &#160;&#160;&#160;</text>
<polygon fill="#000000" stroke="none" points="56.5,-1212 56.5,-1214 143.5,-1214 143.5,-1212 56.5,-1212"/>
<polygon fill="#ff0000" stroke="none" points="56.5,-1210 56.5,-1212 143.5,-1212 143.5,-1210 56.5,-1210"/>
<polygon fill="#000000" stroke="none" points="56.5,-1208 56.5,-1210 143.5,-1210 143.5,-1208 56.5,-1208"/>
<text text-anchor="start" x="69" y="-1194.8" font-family="arial" font-size="14.00"> &#160;&#160;&#160;&#160;2:BU &#160;&#160;&#160;</text>
<polygon fill="#000000" stroke="none" points="56.5,-1187 56.5,-1189 143.5,-1189 143.5,-1187 56.5,-1187"/>
<polygon fill="#0066ff" stroke="none" points="56.5,-1185 56.5,-1187 143.5,-1187 143.5,-1185 56.5,-1185"/>
<polygon fill="#000000" stroke="none" points="56.5,-1183 56.5,-1185 143.5,-1185 143.5,-1183 56.5,-1183"/>
<text text-anchor="start" x="59.17" y="-1169.8" font-family="arial" font-size="14.00"> </text>
</g>
<!-- W&#45;PD&#45;003D -->
<g id="node16" class="node">
<title>W&#45;PD&#45;003D</title>
<polygon fill="#ffffff" stroke="black" points="143.5,-1456 56.5,-1456 56.5,-1322 143.5,-1322 143.5,-1456"/>
<polygon fill="none" stroke="black" points="56.5,-1433 56.5,-1456 143.5,-1456 143.5,-1433 56.5,-1433"/>
<text text-anchor="start" x="60.5" y="-1440.8" font-family="arial" font-size="14.00">W&#45;PD&#45;003D</text>
<polygon fill="none" stroke="black" points="56.5,-1410 56.5,-1433 143.5,-1433 143.5,-1410 56.5,-1410"/>
<text text-anchor="start" x="92" y="-1417.8" font-family="arial" font-size="14.00">2x</text>
<text text-anchor="start" x="59.17" y="-1396.8" font-family="arial" font-size="14.00"> </text>
<text text-anchor="start" x="68.5" y="-1377.8" font-family="arial" font-size="14.00"> &#160;&#160;&#160;&#160;1:RD &#160;&#160;&#160;</text>
<polygon fill="#000000" stroke="none" points="56.5,-1370 56.5,-1372 143.5,-1372 143.5,-1370 56.5,-1370"/>
<polygon fill="#ff0000" stroke="none" points="56.5,-1368 56.5,-1370 143.5,-1370 143.5,-1368 56.5,-1368"/>
<polygon fill="#000000" stroke="none" points="56.5,-1366 56.5,-1368 143.5,-1368 143.5,-1366 56.5,-1366"/>
<text text-anchor="start" x="69" y="-1352.8" font-family="arial" font-size="14.00"> &#160;&#160;&#160;&#160;2:BU &#160;&#160;&#160;</text>
<polygon fill="#000000" stroke="none" points="56.5,-1345 56.5,-1347 143.5,-1347 143.5,-1345 56.5,-1345"/>
<polygon fill="#0066ff" stroke="none" points="56.5,-1343 56.5,-1345 143.5,-1345 143.5,-1343 56.5,-1343"/>
<polygon fill="#000000" stroke="none" points="56.5,-1341 56.5,-1343 143.5,-1343 143.5,-1341 56.5,-1341"/>
<text text-anchor="start" x="59.17" y="-1327.8" font-family="arial" font-size="14.00"> </text>
</g>
<!-- W&#45;PD&#45;004 -->
<g id="node17" class="node">
<title>W&#45;PD&#45;004</title>
<polygon fill="#ffffff" stroke="black" points="141.5,-1589.5 58.5,-1589.5 58.5,-1480.5 141.5,-1480.5 141.5,-1589.5"/>
<polygon fill="none" stroke="black" points="58.5,-1566.5 58.5,-1589.5 141.5,-1589.5 141.5,-1566.5 58.5,-1566.5"/>
<text text-anchor="start" x="65.5" y="-1574.3" font-family="arial" font-size="14.00">W&#45;PD&#45;004</text>
<polygon fill="none" stroke="black" points="58.5,-1543.5 58.5,-1566.5 141.5,-1566.5 141.5,-1543.5 58.5,-1543.5"/>
<text text-anchor="start" x="92" y="-1551.3" font-family="arial" font-size="14.00">1x</text>
<text text-anchor="start" x="60.5" y="-1530.3" font-family="arial" font-size="14.00"> </text>
<text text-anchor="start" x="68.5" y="-1511.3" font-family="arial" font-size="14.00"> &#160;&#160;&#160;&#160;1:RD &#160;&#160;&#160;</text>
<polygon fill="#000000" stroke="none" points="58.5,-1503.5 58.5,-1505.5 141.5,-1505.5 141.5,-1503.5 58.5,-1503.5"/>
<polygon fill="#ff0000" stroke="none" points="58.5,-1501.5 58.5,-1503.5 141.5,-1503.5 141.5,-1501.5 58.5,-1501.5"/>
<polygon fill="#000000" stroke="none" points="58.5,-1499.5 58.5,-1501.5 141.5,-1501.5 141.5,-1499.5 58.5,-1499.5"/>
<text text-anchor="start" x="60.5" y="-1486.3" font-family="arial" font-size="14.00"> </text>
</g>
</g>
</svg>
